<svg width="24" height="24" viewBox="0 0 24 24" fill="none" xmlns="http://www.w3.org/2000/svg">
<g clip-path="url(#clip0_28914_129183)">
<path d="M12 0.234375C18.498 0.234375 23.7656 5.502 23.7656 12C23.7656 18.498 18.498 23.7656 12 23.7656C5.502 23.7656 0.234375 18.498 0.234375 12C0.234375 5.502 5.502 0.234375 12 0.234375Z" fill="#F0F0F0" stroke="#212ADF" stroke-width="0.468658"/>
<path d="M6.09119 8.6344H0.726929C1.11533 7.33098 1.72192 6.12256 2.5072 5.05139L6.09119 8.6344Z" fill="#0052B4" stroke="#212ADF" stroke-width="0.468658"/>
<path d="M21.4918 5.05159C22.2773 6.1229 22.8846 7.33098 23.2731 8.63459H17.9098L21.4918 5.05159Z" fill="#0052B4" stroke="#212ADF" stroke-width="0.468658"/>
<path d="M0.413452 15.1302C0.827359 16.6657 1.53812 18.0793 2.48069 19.3056L6.65603 15.1302H0.413452Z" fill="#0052B4"/>
<path d="M19.3056 2.47977C18.0792 1.53716 16.6657 0.826397 15.1301 0.412491V6.65517L19.3056 2.47977Z" fill="#0052B4"/>
<path d="M4.69397 21.5177C5.92036 22.4603 7.33388 23.1711 8.86941 23.585V17.3424L4.69397 21.5177Z" fill="#0052B4"/>
<path d="M8.86936 0.412491C7.33383 0.826397 5.92031 1.53716 4.69397 2.47972L8.86936 6.65511V0.412491Z" fill="#0052B4"/>
<path d="M15.1301 23.585C16.6657 23.1711 18.0792 22.4603 19.3055 21.5177L15.1301 17.3424V23.585Z" fill="#0052B4"/>
<path d="M17.3444 15.1302L21.5198 19.3056C22.4623 18.0793 23.1731 16.6657 23.587 15.1302H17.3444Z" fill="#0052B4"/>
<path d="M23.8984 10.4348H13.5653H13.5653V0.101578C13.0529 0.034875 12.5305 0 12 0C11.4694 0 10.9471 0.034875 10.4348 0.101578V10.4347V10.4347H0.101578C0.034875 10.9471 0 11.4695 0 12C0 12.5306 0.034875 13.0529 0.101578 13.5652H10.4347H10.4347V23.8984C10.9471 23.9651 11.4694 24 12 24C12.5305 24 13.0529 23.9652 13.5652 23.8984V13.5653V13.5653H23.8984C23.9651 13.0529 24 12.5306 24 12C24 11.4695 23.9651 10.9471 23.8984 10.4348Z" fill="#D80027"/>
<path d="M15.1304 15.1313L20.4852 20.4861C20.7315 20.2399 20.9665 19.9825 21.1906 19.7157L16.6062 15.1312H15.1304V15.1313Z" fill="#D80027"/>
<path d="M8.86951 15.1312H8.86941L3.51465 20.486C3.76084 20.7323 4.01823 20.9672 4.28504 21.1913L8.86951 16.6068V15.1312Z" fill="#D80027"/>
<path d="M8.86939 8.86912V8.86903L3.51458 3.51417C3.2683 3.76036 3.03336 4.01775 2.8092 4.28456L7.39372 8.86907H8.86939V8.86912Z" fill="#D80027"/>
<path d="M15.1304 8.87019L20.4853 3.51528C20.2391 3.269 19.9817 3.03406 19.7149 2.80995L15.1304 7.39447V8.87019Z" fill="#D80027"/>
</g>
<defs>
<clipPath id="clip0_28914_129183">
<rect width="24" height="24" fill="white"/>
</clipPath>
</defs>
</svg>
