<svg width="120" height="24" viewBox="0 0 120 24" fill="none" xmlns="http://www.w3.org/2000/svg">
<g clip-path="url(#clip0_28901_129114)">
<path d="M11.7431 8.83788e-08C10.4895 -0.000153829 9.24392 0.200736 8.05389 0.595017V11.9995C8.05331 12.3992 8.11316 12.7968 8.23141 13.1786C8.48158 13.9823 8.98231 14.6848 9.66037 15.1836C10.3384 15.6823 11.1583 15.951 12 15.9504C12.398 15.9508 12.7939 15.8913 13.1742 15.7739C13.5401 15.6598 13.8872 15.4928 14.2046 15.278C14.8399 14.8491 15.3373 14.2453 15.6367 13.5396C15.8423 13.054 15.9475 12.5318 15.9461 12.0045C15.9467 11.6047 15.8868 11.2072 15.7686 10.8253C15.6545 10.4595 15.4875 10.1124 15.2727 9.79497C14.8438 9.15969 14.2399 8.6623 13.5342 8.36296C13.0489 8.15752 12.527 8.05228 12 8.05355V4.10661C13.5622 4.10602 15.0894 4.56874 16.3886 5.43623C17.6877 6.30372 18.7004 7.53701 19.2985 8.9801C19.8965 10.4232 20.0532 12.0112 19.7486 13.5433C19.444 15.0755 18.6918 16.4828 17.5871 17.5874C16.4825 18.692 15.0751 19.4441 13.5429 19.7487C12.0107 20.0534 10.4226 19.8967 8.97948 19.2987C7.53634 18.7006 6.303 17.688 5.43547 16.3889C4.56794 15.0898 4.1052 13.5626 4.10579 12.0005V2.82236C2.81674 3.92363 1.78205 5.29153 1.07319 6.83161C0.36433 8.3717 -0.00182604 10.0473 6.84734e-06 11.7427V24H12.2579C13.7999 24 15.3269 23.6963 16.7516 23.1061C18.1763 22.516 19.4708 21.651 20.5612 20.5606C21.6515 19.4702 22.5164 18.1757 23.1065 16.751C23.6965 15.3263 24.0001 13.7994 24 12.2573V8.83788e-08H11.7431Z" fill="#F8B836"/>
<path d="M40.3735 7.68519C41.0681 8.12697 41.6103 8.75368 41.9999 9.56531C42.3896 10.3769 42.5844 11.325 42.5844 12.4094C42.5844 13.4918 42.3896 14.4494 41.9999 15.2823C41.6103 16.1152 41.0648 16.7598 40.3634 17.2161C39.6611 17.6719 38.864 17.8998 37.972 17.8998C37.2202 17.8998 36.5506 17.7359 35.9631 17.4082C35.3892 17.0955 34.9197 16.6199 34.6131 16.0407V16.5751C34.6131 16.9581 34.4926 17.2644 34.2516 17.4938C34.0106 17.7232 33.6917 17.837 33.2948 17.8353C32.8979 17.8353 32.5826 17.7215 32.3488 17.4938C32.115 17.2661 31.9987 16.9588 32 16.5719V3.79662C32 3.42634 32.1239 3.12714 32.3717 2.89901C32.6194 2.67088 32.9403 2.55703 33.3342 2.55746C33.7306 2.55746 34.0496 2.66386 34.291 2.87667C34.5324 3.08947 34.6529 3.38144 34.6525 3.75257V8.79603C34.9574 8.23286 35.4241 7.77503 35.9917 7.48217C36.5724 7.17616 37.2314 7.02315 37.9688 7.02315C38.8774 7.02273 39.6789 7.24341 40.3735 7.68519ZM39.2255 14.9267C39.6914 14.3283 39.9244 13.4881 39.9244 12.4062C39.9244 11.3375 39.6939 10.5185 39.2331 9.949C38.7723 9.37954 38.119 9.0948 37.2732 9.0948C36.4227 9.0948 35.7662 9.38315 35.3037 9.95985C34.8412 10.5366 34.611 11.3665 34.6131 12.4497C34.6131 13.5316 34.8433 14.3647 35.3037 14.949C35.7641 15.5334 36.4206 15.8254 37.2732 15.8249C38.1071 15.8245 38.7579 15.5251 39.2255 14.9267Z" fill="#232D3B"/>
<path d="M45.3696 4.76897C45.0863 4.50552 44.9446 4.16014 44.9446 3.73282C44.9446 3.30551 45.0863 2.96311 45.3696 2.70562C45.653 2.45025 46.0357 2.32257 46.5177 2.32257C46.9836 2.32257 47.3626 2.45025 47.6549 2.70562C47.9471 2.96098 48.0924 3.30296 48.0907 3.73155C48.0907 4.15716 47.949 4.50254 47.6657 4.76769C47.3823 5.03285 46.9997 5.16457 46.5177 5.16287C46.0357 5.16372 45.653 5.03242 45.3696 4.76897ZM45.5717 17.5225C45.323 17.3016 45.1989 16.9848 45.1994 16.5719V8.32365C45.1994 7.91081 45.3235 7.59756 45.5717 7.38391C45.8199 7.17025 46.1352 7.06385 46.5177 7.0647C46.8988 7.0647 47.2178 7.1711 47.4744 7.38391C47.7311 7.59671 47.8582 7.90996 47.8556 8.32365V16.5719C47.8556 16.9848 47.7286 17.3016 47.4744 17.5225C47.2069 17.7475 46.8663 17.8654 46.5177 17.8539C46.1352 17.8539 45.8199 17.7434 45.5717 17.5225Z" fill="#232D3B"/>
<path d="M59.9541 16.7214C59.9541 17.0346 59.8548 17.2804 59.6562 17.4587C59.4575 17.6371 59.161 17.726 58.7667 17.7256H51.6626C51.5018 17.7314 51.3415 17.7041 51.1916 17.6453C51.0417 17.5866 50.9054 17.4977 50.7909 17.384C50.6821 17.2792 50.5957 17.153 50.5373 17.0134C50.4788 16.8737 50.4495 16.7235 50.451 16.572C50.451 16.2447 50.5781 15.9314 50.8322 15.6322L56.296 9.28704H51.5565C51.1596 9.28704 50.8619 9.20192 50.6632 9.03168C50.4646 8.86143 50.3655 8.61224 50.3659 8.2841C50.3659 7.9568 50.465 7.70761 50.6632 7.53651C50.8614 7.36542 51.1592 7.2803 51.5565 7.28115H58.423C58.7915 7.28115 59.0857 7.39138 59.3055 7.61185C59.4134 7.71872 59.4984 7.84661 59.5553 7.98768C59.6122 8.12875 59.6398 8.28002 59.6365 8.43221C59.6344 8.77954 59.5058 9.11408 59.275 9.37259L53.7915 15.7171H58.7667C59.5583 15.7171 59.9541 16.0519 59.9541 16.7214Z" fill="#232D3B"/>
<path d="M69.8288 7.26833C70.016 7.1482 70.2338 7.08501 70.4559 7.08639C70.7802 7.0858 71.0938 7.20353 71.3383 7.41772C71.4623 7.51525 71.5622 7.64015 71.6304 7.78274C71.6986 7.92534 71.7332 8.0818 71.7316 8.24C71.728 8.41158 71.6845 8.57995 71.6045 8.73158L65.799 20.9514C65.5575 21.4353 65.1819 21.6773 64.6719 21.6773C64.3573 21.6813 64.0517 21.5714 63.811 21.3677C63.6933 21.2754 63.5984 21.1571 63.5339 21.0218C63.4693 20.8866 63.4367 20.7382 63.4387 20.5882C63.445 20.4033 63.4882 20.2216 63.5658 20.0538L65.0118 16.999L61.0595 8.73158C60.9859 8.57845 60.9493 8.41002 60.9527 8.24C60.9527 7.9127 61.091 7.63606 61.3676 7.41006C61.6324 7.18669 61.9679 7.06558 62.3136 7.06851C62.5457 7.06619 62.7739 7.12898 62.9724 7.24982C63.1826 7.38425 63.346 7.58102 63.44 7.8129L66.4165 14.4141L69.372 7.83397C69.4643 7.60361 69.6235 7.40651 69.8288 7.26833Z" fill="#232D3B"/>
<path d="M81.5531 8.09054C82.1618 8.80301 82.4663 9.87831 82.4667 11.3164V16.5719C82.4667 16.9711 82.3498 17.2843 82.116 17.5116C81.8822 17.7389 81.5599 17.8529 81.1491 17.8538C80.7374 17.8538 80.4112 17.7397 80.1707 17.5116C79.9301 17.2835 79.8098 16.9702 79.8098 16.5719V11.4646C79.8098 10.6529 79.6573 10.062 79.3524 9.69168C79.0474 9.3214 78.569 9.13626 77.9172 9.13626C77.1523 9.13626 76.5394 9.37822 76.0786 9.86214C75.6177 10.3461 75.3873 10.9943 75.3873 11.8067V16.5719C75.3873 16.9711 75.2668 17.2843 75.0258 17.5116C74.7848 17.7389 74.4589 17.8529 74.0481 17.8538C73.6368 17.8538 73.3143 17.7397 73.0805 17.5116C72.8467 17.2835 72.7298 16.9702 72.7298 16.5719V8.30441C72.7298 7.93413 72.8503 7.63493 73.0913 7.4068C73.3323 7.17868 73.6582 7.06482 74.069 7.06525C74.4375 7.06525 74.7389 7.17548 74.9731 7.39595C75.0892 7.50672 75.1804 7.64102 75.2409 7.78993C75.3014 7.93885 75.3296 8.09899 75.3238 8.25972V8.83429C75.6665 8.264 76.1595 7.80002 76.7482 7.49363C77.3433 7.1808 78.0165 7.02418 78.7679 7.02375C80.0152 7.0229 80.9436 7.3785 81.5531 8.09054Z" fill="#232D3B"/>
<path d="M94.4051 15.1406C94.5537 15.3258 94.6281 15.575 94.6281 15.8882C94.6281 16.33 94.3659 16.7003 93.8415 16.9991C93.3248 17.2838 92.7748 17.5027 92.2043 17.6509C91.6363 17.8088 91.0503 17.8914 90.461 17.8967C88.7888 17.8967 87.4638 17.4123 86.4858 16.4436C85.5078 15.475 85.0186 14.1515 85.0182 12.4734C85.0182 11.4055 85.23 10.4583 85.6535 9.63178C86.0556 8.83066 86.6792 8.16319 87.4496 7.70952C88.2221 7.2537 89.0974 7.02578 90.0753 7.02578C91.0105 7.02578 91.8254 7.2322 92.5201 7.64504C93.2157 8.06007 93.777 8.66846 94.1363 9.39685C94.5175 10.1519 94.7081 11.042 94.7081 12.0673C94.7081 12.6802 94.4387 12.9864 93.9 12.986H87.6287C87.7134 13.9687 87.9887 14.6923 88.4546 15.1566C88.9205 15.6209 89.6008 15.8523 90.4953 15.8506C90.9022 15.8575 91.3077 15.7998 91.6967 15.6795C92.0981 15.5443 92.4919 15.3875 92.8765 15.2096C93.3 14.9823 93.612 14.8685 93.8123 14.868C93.9255 14.8631 94.0383 14.8852 94.1413 14.9326C94.2444 14.98 94.3348 15.0513 94.4051 15.1406ZM88.4095 9.58646C87.9771 10.0431 87.7185 10.6984 87.6338 11.5521H92.4356C92.4063 10.6839 92.1946 10.0253 91.8002 9.57624C91.4059 9.12723 90.853 8.90293 90.1414 8.90336C89.4193 8.90293 88.8424 9.13106 88.4095 9.58646Z" fill="#232D3B"/>
<path d="M97.3274 16.9779C96.8729 16.7072 96.6461 16.3227 96.647 15.8243C96.647 15.5396 96.7249 15.3081 96.8808 15.1297C96.9504 15.0453 97.0378 14.9776 97.1367 14.9314C97.2356 14.8853 97.3435 14.8619 97.4526 14.8629C97.694 14.8629 98.0271 14.9767 98.4519 15.2044C98.8542 15.3983 99.2699 15.5626 99.6959 15.696C100.072 15.8105 100.55 15.8675 101.131 15.8671C101.724 15.8671 102.188 15.7673 102.523 15.5677C102.858 15.3681 103.025 15.0904 103.023 14.7346C103.023 14.4928 102.956 14.3013 102.821 14.16C102.686 14.0187 102.445 13.8867 102.098 13.7642C101.578 13.5974 101.049 13.4585 100.514 13.3479C99.2524 13.0926 98.349 12.7293 97.8039 12.2581C97.2588 11.787 96.9858 11.139 96.985 10.3142C96.9801 9.70272 97.1742 9.1064 97.5377 8.616C97.9062 8.11038 98.4129 7.71861 99.058 7.44069C99.7031 7.16276 100.436 7.02402 101.258 7.02444C101.84 7.02188 102.419 7.09658 102.982 7.24661C103.508 7.38485 104.01 7.60476 104.47 7.89843C104.923 8.18316 105.15 8.56046 105.15 9.03033C105.159 9.28915 105.076 9.54268 104.916 9.74599C104.85 9.83547 104.764 9.90814 104.664 9.95823C104.565 10.0083 104.456 10.0345 104.345 10.0346C104.187 10.0343 104.031 10.0017 103.887 9.9388C103.694 9.85226 103.506 9.75595 103.324 9.65023C102.98 9.46663 102.625 9.30604 102.261 9.16951C101.904 9.05376 101.53 8.99958 101.155 9.00927C100.63 9.00927 100.216 9.11567 99.9112 9.32847C99.7669 9.42296 99.649 9.55312 99.569 9.70649C99.489 9.85986 99.4496 10.0313 99.4544 10.2044C99.4492 10.37 99.4902 10.5338 99.5729 10.6772C99.6555 10.8206 99.7765 10.9379 99.922 11.0158C100.234 11.2018 100.836 11.3869 101.729 11.5712C102.678 11.7713 103.423 11.9992 103.961 12.255C104.5 12.5107 104.886 12.8312 105.12 13.2164C105.354 13.5995 105.471 14.0908 105.471 14.6905C105.471 15.6588 105.07 16.4351 104.27 17.0194C103.469 17.6038 102.402 17.8972 101.069 17.8998C99.5237 17.8998 98.2766 17.5925 97.3274 16.9779Z" fill="#232D3B"/>
<path d="M108.065 16.9779C107.611 16.7072 107.384 16.3227 107.384 15.8243C107.384 15.5396 107.462 15.308 107.618 15.1297C107.688 15.0455 107.775 14.9778 107.874 14.9317C107.973 14.8855 108.081 14.862 108.19 14.8628C108.43 14.8628 108.763 14.9767 109.189 15.2044C109.591 15.3983 110.007 15.5626 110.432 15.696C110.808 15.8105 111.286 15.8675 111.868 15.8671C112.463 15.8671 112.927 15.7673 113.26 15.5676C113.594 15.368 113.76 15.0903 113.76 14.7345C113.76 14.4928 113.692 14.3013 113.558 14.1599C113.423 14.0186 113.182 13.8867 112.835 13.7641C112.314 13.5972 111.786 13.4583 111.251 13.3479C109.989 13.0925 109.086 12.7293 108.54 12.2581C107.995 11.787 107.722 11.139 107.722 10.3142C107.717 9.70264 107.911 9.10624 108.275 8.61597C108.642 8.11035 109.149 7.71858 109.795 7.44065C110.44 7.16273 111.174 7.02398 111.995 7.02441C112.576 7.02259 113.155 7.09793 113.717 7.24849C114.244 7.38673 114.746 7.60664 115.206 7.90031C115.658 8.18504 115.885 8.56235 115.885 9.03222C115.894 9.29107 115.811 9.5447 115.652 9.74788C115.585 9.83742 115.499 9.91015 115.4 9.96025C115.3 10.0104 115.191 10.0364 115.08 10.0364C114.922 10.0362 114.767 10.0036 114.622 9.94068C114.43 9.85425 114.242 9.75794 114.059 9.65212C113.716 9.46861 113.361 9.30802 112.996 9.17139C112.639 9.05565 112.265 9.00147 111.89 9.01115C111.367 9.01115 110.952 9.11755 110.647 9.33036C110.503 9.42481 110.385 9.55495 110.305 9.70831C110.225 9.86167 110.185 10.0331 110.19 10.2063C110.184 10.372 110.226 10.5358 110.308 10.6793C110.391 10.8227 110.512 10.9399 110.658 11.0177C110.969 11.2037 111.572 11.3888 112.465 11.5731C113.414 11.7731 114.158 12.001 114.697 12.2568C115.236 12.5126 115.623 12.8331 115.855 13.2183C116.089 13.6013 116.206 14.0927 116.206 14.6924C116.206 15.6606 115.806 16.437 115.005 17.0213C114.205 17.6057 113.138 17.8985 111.805 17.8998C110.26 17.8998 109.014 17.5925 108.065 16.9779Z" fill="#232D3B"/>
<path d="M118.619 17.5653C119.382 17.5653 120 16.9442 120 16.178C120 15.4119 119.382 14.7908 118.619 14.7908C117.857 14.7908 117.239 15.4119 117.239 16.178C117.239 16.9442 117.857 17.5653 118.619 17.5653Z" fill="#232D3B"/>
</g>
<defs>
<clipPath id="clip0_28901_129114">
<rect width="120" height="24" fill="white"/>
</clipPath>
</defs>
</svg>
