<svg width="120" height="24" viewBox="0 0 120 24" fill="none" xmlns="http://www.w3.org/2000/svg">
<g clip-path="url(#clip0_28901_129114)">
<path d="M11.7431 8.83788e-08C10.4895 -0.000153829 9.24392 0.200736 8.05389 0.595017V11.9995C8.05331 12.3992 8.11316 12.7968 8.23141 13.1786C8.48158 13.9823 8.98231 14.6848 9.66037 15.1836C10.3384 15.6823 11.1583 15.951 12 15.9504C12.398 15.9508 12.7939 15.8913 13.1742 15.7739C13.5401 15.6598 13.8872 15.4928 14.2046 15.278C14.8399 14.8491 15.3373 14.2453 15.6367 13.5396C15.8423 13.054 15.9475 12.5318 15.9461 12.0045C15.9467 11.6047 15.8868 11.2072 15.7686 10.8253C15.6545 10.4595 15.4875 10.1124 15.2727 9.79497C14.8438 9.15969 14.2399 8.6623 13.5342 8.36296C13.0489 8.15752 12.527 8.05228 12 8.05355V4.10661C13.5622 4.10602 15.0894 4.56874 16.3886 5.43623C17.6877 6.30372 18.7004 7.53701 19.2985 8.9801C19.8965 10.4232 20.0532 12.0112 19.7486 13.5433C19.444 15.0755 18.6918 16.4828 17.5871 17.5874C16.4825 18.692 15.0751 19.4441 13.5429 19.7487C12.0107 20.0534 10.4226 19.8967 8.97948 19.2987C7.53634 18.7006 6.303 17.688 5.43547 16.3889C4.56794 15.0898 4.1052 13.5626 4.10579 12.0005V2.82236C2.81674 3.92363 1.78205 5.29153 1.07319 6.83161C0.36433 8.3717 -0.00182604 10.0473 6.84734e-06 11.7427V24H12.2579C13.7999 24 15.3269 23.6963 16.7516 23.1061C18.1763 22.516 19.4708 21.651 20.5612 20.5606C21.6515 19.4702 22.5164 18.1757 23.1065 16.751C23.6965 15.3263 24.0001 13.7994 24 12.2573V8.83788e-08H11.7431Z" fill="#F8B836"/>
<path d="M40.3735 10.0078C41.0681 10.4496 41.6103 11.0763 41.9999 11.8879C42.3896 12.6995 42.5844 13.6476 42.5844 14.732C42.5844 15.8144 42.3896 16.772 41.9999 17.6049C41.6103 18.4378 41.0648 19.0824 40.3634 19.5387C39.6611 19.9945 38.864 20.2224 37.972 20.2224C37.2202 20.2224 36.5506 20.0585 35.9631 19.7308C35.3892 19.4181 34.9197 18.9425 34.6131 18.3633V18.8977C34.6131 19.2807 34.4926 19.587 34.2516 19.8164C34.0106 20.0458 33.6917 20.1596 33.2948 20.1579C32.8979 20.1579 32.5826 20.0441 32.3488 19.8164C32.115 19.5887 31.9987 19.2814 32 18.8945V6.11922C32 5.74894 32.1239 5.44974 32.3717 5.22161C32.6194 4.99349 32.9403 4.87963 33.3342 4.88006C33.7306 4.88006 34.0496 4.98646 34.291 5.19927C34.5324 5.41207 34.6529 5.70404 34.6525 6.07517V11.1186C34.9574 10.5555 35.4241 10.0976 35.9917 9.80477C36.5724 9.49876 37.2314 9.34576 37.9688 9.34576C38.8774 9.34533 39.6789 9.56601 40.3735 10.0078ZM39.2255 17.2493C39.6914 16.6509 39.9244 15.8107 39.9244 14.7289C39.9244 13.6601 39.6939 12.8411 39.2331 12.2716C38.7723 11.7021 38.119 11.4174 37.2732 11.4174C36.4227 11.4174 35.7662 11.7058 35.3037 12.2825C34.8412 12.8592 34.611 13.6891 34.6131 14.7723C34.6131 15.8542 34.8433 16.6873 35.3037 17.2716C35.7641 17.856 36.4206 18.148 37.2732 18.1476C38.1071 18.1471 38.7579 17.8477 39.2255 17.2493Z" fill="#232D3B"/>
<path d="M45.3696 7.09157C45.0863 6.82812 44.9446 6.48274 44.9446 6.05543C44.9446 5.62811 45.0863 5.28571 45.3696 5.02822C45.653 4.77285 46.0357 4.64517 46.5177 4.64517C46.9836 4.64517 47.3626 4.77285 47.6549 5.02822C47.9471 5.28358 48.0924 5.62556 48.0907 6.05415C48.0907 6.47976 47.949 6.82514 47.6657 7.09029C47.3823 7.35545 46.9997 7.48717 46.5177 7.48547C46.0357 7.48632 45.653 7.35502 45.3696 7.09157ZM45.5717 19.8451C45.323 19.6242 45.1989 19.3074 45.1994 18.8945V10.6463C45.1994 10.2334 45.3235 9.92016 45.5717 9.70651C45.8199 9.49285 46.1352 9.38645 46.5177 9.3873C46.8988 9.3873 47.2178 9.4937 47.4744 9.70651C47.7311 9.91931 47.8582 10.2326 47.8556 10.6463V18.8945C47.8556 19.3074 47.7286 19.6242 47.4744 19.8451C47.2069 20.0701 46.8663 20.188 46.5177 20.1765C46.1352 20.1765 45.8199 20.066 45.5717 19.8451Z" fill="#232D3B"/>
<path d="M59.9541 19.044C59.9541 19.3572 59.8548 19.603 59.6562 19.7813C59.4575 19.9597 59.161 20.0486 58.7667 20.0482H51.6626C51.5018 20.054 51.3415 20.0267 51.1916 19.9679C51.0417 19.9092 50.9054 19.8203 50.7909 19.7066C50.6821 19.6018 50.5957 19.4756 50.5373 19.336C50.4788 19.1963 50.4495 19.0461 50.451 18.8946C50.451 18.5673 50.5781 18.254 50.8322 17.9548L56.296 11.6096H51.5565C51.1596 11.6096 50.8619 11.5245 50.6632 11.3543C50.4646 11.184 50.3655 10.9348 50.3659 10.6067C50.3659 10.2794 50.465 10.0302 50.6632 9.85912C50.8614 9.68802 51.1592 9.6029 51.5565 9.60375H58.423C58.7915 9.60375 59.0857 9.71398 59.3055 9.93445C59.4134 10.0413 59.4984 10.1692 59.5553 10.3103C59.6122 10.4514 59.6398 10.6026 59.6365 10.7548C59.6344 11.1021 59.5058 11.4367 59.275 11.6952L53.7915 18.0397H58.7667C59.5583 18.0397 59.9541 18.3745 59.9541 19.044Z" fill="#232D3B"/>
<path d="M69.8288 9.59093C70.016 9.4708 70.2338 9.40762 70.4559 9.40899C70.7802 9.4084 71.0938 9.52613 71.3383 9.74032C71.4623 9.83785 71.5622 9.96275 71.6304 10.1053C71.6986 10.2479 71.7332 10.4044 71.7316 10.5626C71.728 10.7342 71.6845 10.9025 71.6045 11.0542L65.799 23.274C65.5575 23.7579 65.1819 23.9999 64.6719 23.9999C64.3573 24.0039 64.0517 23.894 63.811 23.6903C63.6933 23.598 63.5984 23.4797 63.5339 23.3444C63.4693 23.2092 63.4367 23.0608 63.4387 22.9108C63.445 22.7259 63.4882 22.5442 63.5658 22.3764L65.0118 19.3216L61.0595 11.0542C60.9859 10.9011 60.9493 10.7326 60.9527 10.5626C60.9527 10.2353 61.091 9.95866 61.3676 9.73266C61.6324 9.50929 61.9679 9.38818 62.3136 9.39111C62.5457 9.38879 62.7739 9.45158 62.9724 9.57242C63.1826 9.70685 63.346 9.90362 63.44 10.1355L66.4165 16.7367L69.372 10.1566C69.4643 9.92621 69.6235 9.72911 69.8288 9.59093Z" fill="#232D3B"/>
<path d="M81.5531 10.4131C82.1618 11.1256 82.4663 12.2009 82.4667 13.639V18.8945C82.4667 19.2937 82.3498 19.6069 82.116 19.8342C81.8822 20.0615 81.5599 20.1755 81.1491 20.1764C80.7374 20.1764 80.4112 20.0623 80.1707 19.8342C79.9301 19.6061 79.8098 19.2928 79.8098 18.8945V13.7872C79.8098 12.9755 79.6573 12.3846 79.3524 12.0143C79.0474 11.644 78.569 11.4589 77.9172 11.4589C77.1523 11.4589 76.5394 11.7008 76.0786 12.1847C75.6177 12.6687 75.3873 13.3169 75.3873 14.1293V18.8945C75.3873 19.2937 75.2668 19.6069 75.0258 19.8342C74.7848 20.0615 74.4589 20.1755 74.0481 20.1764C73.6368 20.1764 73.3143 20.0623 73.0805 19.8342C72.8467 19.6061 72.7298 19.2928 72.7298 18.8945V10.627C72.7298 10.2567 72.8503 9.95753 73.0913 9.7294C73.3323 9.50128 73.6582 9.38743 74.069 9.38785C74.4375 9.38785 74.7389 9.49808 74.9731 9.71855C75.0892 9.82932 75.1804 9.96362 75.2409 10.1125C75.3014 10.2615 75.3296 10.4216 75.3238 10.5823V11.1569C75.6665 10.5866 76.1595 10.1226 76.7482 9.81623C77.3433 9.5034 78.0165 9.34678 78.7679 9.34635C80.0152 9.3455 80.9436 9.7011 81.5531 10.4131Z" fill="#232D3B"/>
<path d="M94.4051 17.4632C94.5537 17.6484 94.6281 17.8976 94.6281 18.2108C94.6281 18.6526 94.3659 19.0229 93.8415 19.3217C93.3248 19.6064 92.7748 19.8253 92.2043 19.9735C91.6363 20.1314 91.0503 20.214 90.461 20.2193C88.7888 20.2193 87.4638 19.7349 86.4858 18.7662C85.5078 17.7976 85.0186 16.4741 85.0182 14.796C85.0182 13.7281 85.23 12.7809 85.6535 11.9544C86.0556 11.1533 86.6792 10.4858 87.4496 10.0321C88.2221 9.5763 89.0974 9.34838 90.0753 9.34838C91.0105 9.34838 91.8254 9.55481 92.5201 9.96765C93.2157 10.3827 93.777 10.9911 94.1363 11.7194C94.5175 12.4745 94.7081 13.3646 94.7081 14.3899C94.7081 15.0028 94.4387 15.309 93.9 15.3086H87.6287C87.7134 16.2913 87.9887 17.0149 88.4546 17.4792C88.9205 17.9435 89.6008 18.1749 90.4953 18.1732C90.9022 18.1801 91.3077 18.1224 91.6967 18.0021C92.0981 17.8669 92.4919 17.7101 92.8765 17.5322C93.3 17.3049 93.612 17.1911 93.8123 17.1906C93.9255 17.1857 94.0383 17.2078 94.1413 17.2552C94.2444 17.3026 94.3348 17.3739 94.4051 17.4632ZM88.4095 11.9091C87.9771 12.3657 87.7185 13.021 87.6338 13.8747H92.4356C92.4063 13.0065 92.1946 12.3479 91.8002 11.8988C91.4059 11.4498 90.853 11.2255 90.1414 11.226C89.4193 11.2255 88.8424 11.4537 88.4095 11.9091Z" fill="#232D3B"/>
<path d="M97.3274 19.3005C96.8729 19.0298 96.6461 18.6453 96.647 18.1469C96.647 17.8622 96.7249 17.6307 96.8808 17.4523C96.9504 17.3679 97.0378 17.3002 97.1367 17.2541C97.2356 17.2079 97.3435 17.1845 97.4526 17.1855C97.694 17.1855 98.0271 17.2993 98.4519 17.527C98.8542 17.7209 99.2699 17.8852 99.6959 18.0186C100.072 18.1331 100.55 18.1901 101.131 18.1897C101.724 18.1897 102.188 18.0899 102.523 17.8903C102.858 17.6907 103.025 17.413 103.023 17.0572C103.023 16.8154 102.956 16.6239 102.821 16.4826C102.686 16.3413 102.445 16.2093 102.098 16.0868C101.578 15.92 101.049 15.7811 100.514 15.6705C99.2524 15.4152 98.349 15.0519 97.8039 14.5807C97.2588 14.1096 96.9858 13.4616 96.985 12.6368C96.9801 12.0253 97.1742 11.429 97.5377 10.9386C97.9062 10.433 98.4129 10.0412 99.058 9.76329C99.7031 9.48536 100.436 9.34662 101.258 9.34704C101.84 9.34448 102.419 9.41918 102.982 9.56921C103.508 9.70745 104.01 9.92736 104.47 10.221C104.923 10.5058 105.15 10.8831 105.15 11.3529C105.159 11.6118 105.076 11.8653 104.916 12.0686C104.85 12.1581 104.764 12.2307 104.664 12.2808C104.565 12.3309 104.456 12.3571 104.345 12.3572C104.187 12.3569 104.031 12.3244 103.887 12.2614C103.694 12.1749 103.506 12.0785 103.324 11.9728C102.98 11.7892 102.625 11.6286 102.261 11.4921C101.904 11.3764 101.53 11.3222 101.155 11.3319C100.63 11.3319 100.216 11.4383 99.9112 11.6511C99.7669 11.7456 99.649 11.8757 99.569 12.0291C99.489 12.1825 99.4496 12.3539 99.4544 12.527C99.4492 12.6926 99.4902 12.8564 99.5729 12.9998C99.6555 13.1432 99.7765 13.2605 99.922 13.3384C100.234 13.5244 100.836 13.7095 101.729 13.8938C102.678 14.0939 103.423 14.3218 103.961 14.5776C104.5 14.8333 104.886 15.1538 105.12 15.539C105.354 15.9221 105.471 16.4134 105.471 17.0131C105.471 17.9814 105.07 18.7577 104.27 19.342C103.469 19.9264 102.402 20.2198 101.069 20.2224C99.5237 20.2224 98.2766 19.9151 97.3274 19.3005Z" fill="#232D3B"/>
<path d="M108.065 19.3005C107.611 19.0298 107.384 18.6453 107.384 18.1469C107.384 17.8622 107.462 17.6306 107.618 17.4523C107.688 17.3681 107.775 17.3004 107.874 17.2543C107.973 17.2081 108.081 17.1846 108.19 17.1854C108.43 17.1854 108.763 17.2993 109.189 17.527C109.591 17.7209 110.007 17.8852 110.432 18.0186C110.808 18.1331 111.286 18.1901 111.868 18.1897C112.463 18.1897 112.927 18.0899 113.26 17.8903C113.594 17.6906 113.76 17.4129 113.76 17.0571C113.76 16.8154 113.692 16.6239 113.558 16.4825C113.423 16.3412 113.182 16.2093 112.835 16.0867C112.314 15.9198 111.786 15.7809 111.251 15.6705C109.989 15.4151 109.086 15.0519 108.54 14.5807C107.995 14.1096 107.722 13.4616 107.722 12.6368C107.717 12.0252 107.911 11.4288 108.275 10.9386C108.642 10.433 109.149 10.0412 109.795 9.76326C110.44 9.48533 111.174 9.34659 111.995 9.34701C112.576 9.34519 113.155 9.42054 113.717 9.57109C114.244 9.70933 114.746 9.92924 115.206 10.2229C115.658 10.5076 115.885 10.8849 115.885 11.3548C115.894 11.6137 115.811 11.8673 115.652 12.0705C115.585 12.16 115.499 12.2327 115.4 12.2829C115.3 12.333 115.191 12.359 115.08 12.359C114.922 12.3588 114.767 12.3262 114.622 12.2633C114.43 12.1769 114.242 12.0805 114.059 11.9747C113.716 11.7912 113.361 11.6306 112.996 11.494C112.639 11.3782 112.265 11.3241 111.89 11.3338C111.367 11.3338 110.952 11.4402 110.647 11.653C110.503 11.7474 110.385 11.8776 110.305 12.0309C110.225 12.1843 110.185 12.3557 110.19 12.5289C110.184 12.6946 110.226 12.8584 110.308 13.0019C110.391 13.1453 110.512 13.2625 110.658 13.3403C110.969 13.5263 111.572 13.7114 112.465 13.8957C113.414 14.0957 114.158 14.3237 114.697 14.5794C115.236 14.8352 115.623 15.1557 115.855 15.5409C116.089 15.9239 116.206 16.4153 116.206 17.015C116.206 17.9832 115.806 18.7596 115.005 19.3439C114.205 19.9283 113.138 20.2211 111.805 20.2224C110.26 20.2224 109.014 19.9151 108.065 19.3005Z" fill="#232D3B"/>
<path d="M118.619 19.8879C119.382 19.8879 120 19.2668 120 18.5006C120 17.7345 119.382 17.1134 118.619 17.1134C117.857 17.1134 117.239 17.7345 117.239 18.5006C117.239 19.2668 117.857 19.8879 118.619 19.8879Z" fill="#232D3B"/>
</g>
<defs>
<clipPath id="clip0_28901_129114">
<rect width="120" height="24" fill="white"/>
</clipPath>
</defs>
</svg>
